<svg width="30" height="29" viewBox="0 0 30 29" fill="none" xmlns="http://www.w3.org/2000/svg">
<path d="M28.5215 13.7611C27.4851 18.6846 23.1167 22.3806 17.8849 22.3806C11.8905 22.3806 7.01514 17.5052 7.01514 11.5107C7.01514 6.27899 10.7111 1.91056 15.6346 0.87418C15.8457 0.829742 15.9621 1.11183 15.7808 1.22882C13.309 2.82388 11.6724 5.60237 11.6724 8.76305C11.6724 13.7136 15.6821 17.7233 20.6326 17.7233C23.7933 17.7233 26.5718 16.0868 28.1668 13.6149C28.2838 13.4336 28.5659 13.55 28.5215 13.7611Z" fill="#1E337C"/>
<path d="M21.4049 5.76071C19.2556 6.01508 19.0494 6.22128 18.795 8.37064C18.5406 6.22128 18.3344 6.01508 16.1851 5.76071C18.3344 5.50634 18.5406 5.30013 18.795 3.15077C19.0494 5.30013 19.2556 5.50634 21.4049 5.76071Z" fill="#1E337C"/>
<path d="M5.21985 14.5123C3.0705 14.7666 2.8643 14.9728 2.60993 17.1222C2.35556 14.9728 2.14935 14.7666 0 14.5123C2.14935 14.2579 2.35556 14.0517 2.60993 11.9023C2.8643 14.0517 3.0705 14.2579 5.21985 14.5123Z" fill="#1E337C"/>
<path d="M30.0001 22.4267C27.8508 22.6811 27.6446 22.8873 27.3902 25.0367C27.1358 22.8873 26.9296 22.6811 24.7803 22.4267C26.9296 22.1723 27.1358 21.9661 27.3902 19.8168C27.6446 21.9661 27.8508 22.1723 30.0001 22.4267Z" fill="#1E337C"/>
<path d="M12.4147 25.5206C10.2653 25.775 10.0591 25.9812 9.80475 28.1305C9.55038 25.9812 9.34417 25.775 7.19482 25.5206C9.34417 25.2662 9.55038 25.06 9.80475 22.9106C10.0591 25.06 10.2653 25.2662 12.4147 25.5206Z" fill="#1E337C"/>
<path d="M26.9161 4.30132C26.1488 4.39213 26.0752 4.46574 25.9844 5.23299C25.8936 4.46574 25.82 4.39213 25.0527 4.30132C25.82 4.21052 25.8936 4.13691 25.9844 3.36966C26.0752 4.13692 26.1488 4.21054 26.9161 4.30132Z" fill="#1E337C"/>
<path d="M20.6114 25.0051C19.8441 25.0959 19.7705 25.1696 19.6797 25.9368C19.5889 25.1696 19.5153 25.0959 18.748 25.0051C19.5153 24.9143 19.5889 24.8407 19.6797 24.0735C19.7705 24.8407 19.8441 24.9143 20.6114 25.0051Z" fill="#1E337C"/>
<path d="M19.6194 11.9728C18.2153 12.139 18.0806 12.2737 17.9144 13.6778C17.7483 12.2737 17.6136 12.139 16.2095 11.9728C17.6136 11.8066 17.7483 11.6719 17.9144 10.2678C18.0806 11.6719 18.2153 11.8066 19.6194 11.9728Z" fill="#1E337C"/>
<path d="M25.6946 10.1632C24.2905 10.3293 24.1558 10.4641 23.9896 11.8681C23.8235 10.4641 23.6888 10.3293 22.2847 10.1632C23.6888 9.99701 23.8235 9.86229 23.9896 8.4582C24.1558 9.86231 24.2905 9.99701 25.6946 10.1632Z" fill="#1E337C"/>
<path d="M6.75199 6.53433C5.69643 6.65926 5.59516 6.76053 5.47023 7.81609C5.3453 6.76053 5.24404 6.65926 4.18848 6.53433C5.24404 6.40942 5.3453 6.30814 5.47023 5.25257C5.59515 6.30814 5.69643 6.4094 6.75199 6.53433Z" fill="#1E337C"/>
<path d="M8.13382 20.3983C7.07826 20.5233 6.977 20.6245 6.85207 21.6801C6.72714 20.6245 6.62587 20.5233 5.57031 20.3983C6.62587 20.2734 6.72714 20.1721 6.85207 19.1166C6.97698 20.1722 7.07826 20.2734 8.13382 20.3983Z" fill="#1E337C"/>
</svg>
