<svg width="30" height="31" viewBox="0 0 30 31" fill="none" xmlns="http://www.w3.org/2000/svg">
<path d="M23.5492 15.4999C23.5492 20.2218 19.721 24.0494 14.9994 24.0494C10.2778 24.0494 6.4502 20.2215 6.4502 15.4999C6.4502 10.778 10.2778 6.9501 14.9994 6.9501C19.7213 6.9501 23.5492 10.778 23.5492 15.4999Z" fill="#F6921E"/>
<path d="M16.2638 1.76425C16.2638 2.46217 15.6979 5.10556 14.9997 5.10556C14.3021 5.10556 13.7358 2.46217 13.7358 1.76425C13.7358 1.06634 14.3018 0.500393 14.9997 0.500393C15.6976 0.500393 16.2638 1.06608 16.2638 1.76425Z" fill="#FAAF3B"/>
<path d="M9.22603 2.9724C9.57486 3.577 10.4066 6.14889 9.8025 6.49798C9.1979 6.8468 7.38623 4.84034 7.03714 4.23601C6.68832 3.63141 6.8952 2.85884 7.49979 2.50975C8.10439 2.16066 8.87694 2.36833 9.22603 2.9724Z" fill="#FAAF3B"/>
<path d="M3.73574 7.53761C4.34033 7.88644 6.34654 9.69839 5.99745 10.3025C5.64836 10.907 3.07673 10.0756 2.47213 9.72651C1.86728 9.37742 1.6604 8.60486 2.00948 8.00026C2.35857 7.39567 3.13141 7.18853 3.73574 7.53761Z" fill="#FAAF3B"/>
<path d="M1.26361 14.2365C1.96178 14.2365 4.60517 14.802 4.60517 15.5001C4.60517 16.1975 1.96177 16.7637 1.26412 16.7637C0.566206 16.7637 0 16.1983 0 15.5001C0.000262867 14.802 0.566218 14.2365 1.26361 14.2365Z" fill="#FAAF3B"/>
<path d="M2.47194 21.2735C3.07654 20.9247 5.64869 20.0929 5.99778 20.697C6.34607 21.3016 4.33987 23.1133 3.73606 23.4621C3.13147 23.8112 2.35838 23.6046 2.00955 23C1.6602 22.3951 1.86761 21.6228 2.47194 21.2735Z" fill="#FAAF3B"/>
<path d="M7.03727 26.764C7.38636 26.1594 9.19777 24.1529 9.80237 24.5018C10.4064 24.8508 9.57473 27.423 9.22643 28.0271C8.87734 28.6317 8.10398 28.8391 7.49965 28.49C6.89479 28.1412 6.68844 27.3683 7.03727 26.764Z" fill="#FAAF3B"/>
<path d="M13.7358 29.236C13.7358 28.5378 14.3013 25.8947 14.9997 25.8944C15.6971 25.8947 16.2633 28.5383 16.2633 29.2355C16.2633 29.9336 15.6974 30.4996 14.9992 30.4996C14.301 30.4999 13.7358 29.9339 13.7358 29.236Z" fill="#FAAF3B"/>
<path d="M20.7733 28.0279C20.4242 27.4233 19.5927 24.8514 20.1968 24.502C20.8009 24.1537 22.6131 26.1599 22.9616 26.7637C23.3107 27.3683 23.1036 28.1412 22.499 28.4902C21.8941 28.8396 21.1218 28.6319 20.7733 28.0279Z" fill="#FAAF3B"/>
<path d="M26.2636 23.4624C25.6587 23.1136 23.653 21.3016 24.0019 20.6975C24.351 20.0935 26.9231 20.9249 27.5267 21.2735C28.1312 21.6226 28.3389 22.3957 27.9898 23.0003C27.6405 23.6049 26.8674 23.8115 26.2636 23.4624Z" fill="#FAAF3B"/>
<path d="M28.7358 16.764C28.0379 16.764 25.3945 16.1981 25.3945 15.5001C25.3951 14.803 28.0384 14.2363 28.7353 14.2363C29.4335 14.2368 30.0002 14.8022 30.0002 15.5004C30.0002 16.1986 29.4335 16.764 28.7358 16.764Z" fill="#FAAF3B"/>
<path d="M27.527 9.72651C26.9224 10.0756 24.3503 10.9071 24.0012 10.303C23.6532 9.69891 25.6594 7.8867 26.2629 7.53814C26.8675 7.18905 27.6403 7.39566 27.9899 8.00052C28.3393 8.60538 28.1311 9.37768 27.527 9.72651Z" fill="#FAAF3B"/>
<path d="M22.9619 4.23627C22.6131 4.84086 20.8011 6.84732 20.1971 6.49824C19.5935 6.14915 20.4244 3.57699 20.773 2.97318C21.1221 2.36885 21.8952 2.16119 22.5001 2.51028C23.1049 2.85937 23.311 3.6322 22.9619 4.23627Z" fill="#FAAF3B"/>
</svg>
